<?xml version="1.0" standalone="no"?>
<!DOCTYPE svg PUBLIC "-//W3C//DTD SVG 20010904//EN"
 "http://www.w3.org/TR/2001/REC-SVG-20010904/DTD/svg10.dtd">
<svg version="1.0" xmlns="http://www.w3.org/2000/svg"
 width="251.000000pt" height="251.000000pt" viewBox="0 0 251.000000 251.000000"
 preserveAspectRatio="xMidYMid meet">
<metadata>
Created by potrace 1.14, written by Peter Selinger 2001-2017
</metadata>
<g transform="translate(0.000000,251.000000) scale(0.100000,-0.100000)"
fill="#000000" stroke="none">
<path d="M1105 2483 c-11 -2 -55 -10 -97 -19 -247 -47 -478 -172 -655 -354
-91 -94 -93 -96 -93 -105 0 -4 -8 -15 -18 -24 -45 -42 -141 -225 -178 -340
-45 -140 -58 -228 -59 -376 0 -187 16 -283 75 -443 37 -100 127 -262 163 -295
11 -9 17 -17 13 -17 -6 0 30 -42 99 -114 177 -186 458 -328 720 -364 95 -13
336 -7 422 11 309 65 584 234 756 466 23 31 45 58 48 61 19 14 121 227 147
305 46 142 57 214 56 390 -1 131 -5 177 -24 255 -72 298 -229 538 -473 721
-213 160 -452 240 -732 244 -82 1 -159 0 -170 -2z"/>
</g>
</svg>
